<svg width="12" height="13" viewBox="0 0 12 13" fill="none" xmlns="http://www.w3.org/2000/svg">
<path fill-rule="evenodd" clip-rule="evenodd" d="M4.71438 4.85828H6.57138V5.86036C6.83888 5.28403 7.52488 4.7662 8.55538 4.7662C10.5309 4.7662 10.9999 5.91345 10.9999 8.01836V11.9167H8.99988V8.49774C8.99988 7.29903 8.73238 6.62303 8.05138 6.62303C7.10688 6.62303 6.71438 7.35157 6.71438 8.4972V11.9167H4.71438V4.85828ZM1.28488 11.8247H3.28488V4.7662H1.28488V11.8247ZM3.57138 2.46465C3.57145 2.64626 3.53821 2.82607 3.47357 2.99364C3.40894 3.1612 3.3142 3.31318 3.19488 3.44074C2.95308 3.70108 2.62578 3.8468 2.28488 3.8459C1.94457 3.84566 1.61803 3.7003 1.37588 3.44128C1.25698 3.31329 1.16257 3.16114 1.09805 2.99355C1.03353 2.82597 1.00017 2.64623 0.999878 2.46465C0.999878 2.09795 1.13488 1.74695 1.37638 1.48803C1.61832 1.22866 1.945 1.08324 2.28538 1.0834C2.62638 1.0834 2.95338 1.22911 3.19488 1.48803C3.43588 1.74695 3.57138 2.09795 3.57138 2.46465Z" fill="white"/>
</svg>
