<svg width="11" height="10" viewBox="0 0 11 10" fill="none" xmlns="http://www.w3.org/2000/svg">
<path d="M10.835 2.05709C10.4523 2.21126 10.0412 2.31542 9.60897 2.36251C10.0549 2.11992 10.3886 1.73812 10.5476 1.28834C10.1286 1.51459 9.67008 1.67384 9.19188 1.75917C8.87031 1.44703 8.44437 1.24014 7.9802 1.17062C7.51603 1.1011 7.03959 1.17284 6.62487 1.3747C6.21014 1.57655 5.88032 1.89724 5.68662 2.28697C5.49292 2.67669 5.44617 3.11365 5.55363 3.53001C4.70466 3.49126 3.87413 3.29065 3.11595 2.94122C2.35778 2.59178 1.68889 2.10132 1.15272 1.50167C0.969384 1.78917 0.863968 2.12251 0.863968 2.47751C0.863763 2.79709 0.950333 3.11177 1.116 3.39365C1.28166 3.67552 1.52129 3.91586 1.81363 4.09334C1.47459 4.08353 1.14303 4.00025 0.846551 3.85042V3.87542C0.846517 4.32365 1.01707 4.75808 1.32926 5.10501C1.64145 5.45193 2.07606 5.68998 2.55934 5.77876C2.24483 5.85614 1.91508 5.86754 1.59501 5.81209C1.73136 6.19776 1.99697 6.53502 2.35464 6.77664C2.71231 7.01827 3.14414 7.15216 3.58968 7.15959C2.83335 7.69934 1.89929 7.99213 0.93776 7.99084C0.767434 7.99088 0.597253 7.98184 0.428093 7.96376C1.4041 8.53425 2.54025 8.83702 3.70059 8.83584C7.62851 8.83584 9.7758 5.87834 9.7758 3.31334C9.7758 3.23001 9.77351 3.14584 9.76938 3.06251C10.1871 2.78791 10.5476 2.44788 10.8341 2.05834L10.835 2.05709Z" fill="white"/>
</svg>
