<svg width="13" height="14" viewBox="0 0 13 14" fill="none" xmlns="http://www.w3.org/2000/svg">
<g clip-path="url(#clip0_10_5393)">
<path fill-rule="evenodd" clip-rule="evenodd" d="M4.04295 0.62166C4.67833 0.59016 4.88091 0.58316 6.49941 0.58316C8.11791 0.58316 8.32049 0.590744 8.95533 0.62166C9.59016 0.652577 10.0235 0.76166 10.4027 0.919744C10.7997 1.08133 11.1599 1.33391 11.4578 1.66058C11.7612 1.98083 11.9952 2.36816 12.1447 2.79633C12.292 3.20466 12.3927 3.67133 12.422 4.35383C12.4512 5.03924 12.4577 5.25741 12.4577 6.99983C12.4577 8.74283 12.4507 8.96099 12.422 9.64524C12.3933 10.3277 12.292 10.7944 12.1447 11.2027C11.9952 11.631 11.7608 12.0189 11.4578 12.3397C11.1599 12.6663 10.7997 12.9183 10.4027 13.0793C10.0235 13.238 9.59016 13.3465 8.95641 13.378C8.32049 13.4095 8.11791 13.4165 6.49941 13.4165C4.88091 13.4165 4.67833 13.4089 4.04295 13.378C3.4092 13.3471 2.97587 13.238 2.5967 13.0793C2.19908 12.9183 1.83881 12.6659 1.54099 12.3397C1.23787 12.0192 1.00329 11.6314 0.853618 11.2033C0.706827 10.795 0.606077 10.3283 0.576827 9.64583C0.547577 8.96041 0.541077 8.74224 0.541077 6.99983C0.541077 5.25683 0.548118 5.03866 0.576827 4.35499C0.605535 3.67133 0.706827 3.20466 0.853618 2.79633C1.00351 2.36821 1.23827 1.98043 1.54153 1.65999C1.83893 1.33362 2.19883 1.081 2.59616 0.919744C2.97533 0.76166 3.40866 0.65316 4.04241 0.62166H4.04295ZM8.90712 1.77666C8.27878 1.74574 8.09028 1.73933 6.49941 1.73933C4.90853 1.73933 4.72003 1.74574 4.0917 1.77666C3.51049 1.80524 3.19524 1.90966 2.98508 1.99774C2.7072 2.11441 2.50841 2.25266 2.29987 2.47724C2.10218 2.68436 1.95005 2.93649 1.85462 3.21516C1.77283 3.44149 1.67587 3.78099 1.64933 4.40691C1.62062 5.08358 1.61466 5.28658 1.61466 6.99983C1.61466 8.71308 1.62062 8.91608 1.64933 9.59274C1.67587 10.2187 1.77283 10.5582 1.85462 10.7845C1.94995 11.0627 2.10216 11.3153 2.29987 11.5224C2.49216 11.7353 2.7267 11.8992 2.98508 12.0019C3.19524 12.09 3.51049 12.1944 4.0917 12.223C4.72003 12.2539 4.90799 12.2603 6.49941 12.2603C8.09083 12.2603 8.27878 12.2539 8.90712 12.223C9.48833 12.1944 9.80358 12.09 10.0137 12.0019C10.2916 11.8852 10.4904 11.747 10.699 11.5224C10.8967 11.3153 11.0489 11.0627 11.1442 10.7845C11.226 10.5582 11.323 10.2187 11.3495 9.59274C11.3782 8.91608 11.3842 8.71308 11.3842 6.99983C11.3842 5.28658 11.3782 5.08358 11.3495 4.40691C11.323 3.78099 11.226 3.44149 11.1442 3.21516C11.0359 2.91591 10.9075 2.70183 10.699 2.47724C10.5066 2.26437 10.2725 2.10053 10.0137 1.99774C9.80358 1.90966 9.48833 1.80524 8.90712 1.77666ZM5.73837 8.97791C6.16339 9.16844 6.63666 9.19416 7.07733 9.05066C7.518 8.90717 7.89875 8.60336 8.15453 8.19114C8.41032 7.77891 8.52527 7.28383 8.47977 6.79047C8.43426 6.29711 8.23112 5.83606 7.90503 5.48608C7.69716 5.26235 7.44582 5.09105 7.16909 4.9845C6.89236 4.87794 6.59714 4.83879 6.30468 4.86985C6.01221 4.90092 5.72978 5.00143 5.47772 5.16415C5.22566 5.32688 5.01023 5.54776 4.84695 5.81091C4.68367 6.07405 4.5766 6.37291 4.53344 6.68597C4.49028 6.99903 4.51212 7.3185 4.59737 7.62138C4.68262 7.92426 4.82917 8.20302 5.02647 8.43758C5.22376 8.67215 5.4669 8.85668 5.73837 8.97791ZM4.33383 4.66766C4.61821 4.3614 4.95583 4.11845 5.3274 3.9527C5.69898 3.78696 6.09722 3.70165 6.49941 3.70165C6.9016 3.70165 7.29984 3.78696 7.67141 3.9527C8.04299 4.11845 8.3806 4.3614 8.66499 4.66766C8.94938 4.97392 9.17497 5.33751 9.32888 5.73767C9.48279 6.13782 9.56201 6.5667 9.56201 6.99983C9.56201 7.43295 9.48279 7.86183 9.32888 8.26199C9.17497 8.66214 8.94938 9.02573 8.66499 9.33199C8.09064 9.95052 7.31166 10.298 6.49941 10.298C5.68716 10.298 4.90817 9.95052 4.33383 9.33199C3.75948 8.71346 3.43681 7.87456 3.43681 6.99983C3.43681 6.12509 3.75948 5.28619 4.33383 4.66766ZM10.2412 4.19283C10.3117 4.12123 10.3681 4.03514 10.4072 3.93965C10.4462 3.84415 10.467 3.74119 10.4684 3.63687C10.4698 3.53255 10.4518 3.42898 10.4154 3.3323C10.379 3.23562 10.3249 3.14779 10.2564 3.07402C10.1879 3.00024 10.1063 2.94202 10.0166 2.9028C9.92678 2.86357 9.83061 2.84415 9.73374 2.84567C9.63687 2.84719 9.54126 2.86963 9.45259 2.91165C9.36392 2.95367 9.28397 3.01443 9.21749 3.09033C9.0882 3.23793 9.01742 3.43398 9.02016 3.63687C9.02291 3.83976 9.09897 4.03351 9.2322 4.17699C9.36543 4.32046 9.54534 4.40238 9.73374 4.40533C9.92214 4.40829 10.1042 4.33206 10.2412 4.19283Z" fill="white"/>
</g>
<defs>
<clipPath id="clip0_10_5393">
<rect width="13" height="14" fill="white"/>
</clipPath>
</defs>
</svg>
