<svg width="56" height="56" viewBox="0 0 56 56" fill="none" xmlns="http://www.w3.org/2000/svg">
<rect width="56" height="56" rx="20.2062" fill="#834DEE" fill-opacity="0.25"/>
<path d="M21.448 20C17.6018 22.029 15 25.7391 15 29.5652V30.087C15 33.2174 17.2059 36 20.8258 36C24.1629 36 26.3688 33.5652 26.3688 30.4928C26.3688 27.7681 24.5023 25.3913 21.3914 25.1594L21.448 20ZM35.0792 20C31.233 22.029 28.6878 25.7391 28.6878 29.5652V30.087C28.6878 33.2174 30.8937 36 34.457 36C37.7941 36 40 33.5652 40 30.4928C40 27.7681 38.1335 25.3913 35.0226 25.1594L35.0792 20Z" fill="#834DEE"/>
</svg>
