<svg width="30" height="30" viewBox="0 0 30 30" fill="none" xmlns="http://www.w3.org/2000/svg">
<path d="M18.75 17.5C15.375 17.5 8.75 19.125 8.75 22.5V25H28.75V22.5C28.75 19.125 22.125 17.5 18.75 17.5ZM18.75 15C20.0761 15 21.3479 14.4732 22.2855 13.5355C23.2232 12.5979 23.75 11.3261 23.75 10C23.75 8.67392 23.2232 7.40215 22.2855 6.46447C21.3479 5.52678 20.0761 5 18.75 5C17.4239 5 16.1521 5.52678 15.2145 6.46447C14.2768 7.40215 13.75 8.67392 13.75 10C13.75 11.3261 14.2768 12.5979 15.2145 13.5355C16.1521 14.4732 17.4239 15 18.75 15ZM6.25 18.75L5.5 18.125C3 15.75 1.25 14.25 1.25 12.375C1.25 10.875 2.5 9.625 4 9.625C4.875 9.625 5.75 10 6.25 10.625C6.75 10 7.625 9.625 8.5 9.625C10 9.625 11.25 10.75 11.25 12.375C11.25 14.25 9.5 15.75 7 18.125L6.25 18.75Z" fill="#834DEE"/>
</svg>
