<svg width="26" height="26" viewBox="0 0 26 26" fill="none" xmlns="http://www.w3.org/2000/svg">
<path d="M5.41665 8.66667C6.56592 8.66667 7.66812 9.12321 8.48078 9.93587C9.29343 10.7485 9.74998 11.8507 9.74998 13C9.74998 14.1493 9.29343 15.2515 8.48078 16.0641C7.66812 16.8768 6.56592 17.3333 5.41665 17.3333C4.26737 17.3333 3.16517 16.8768 2.35252 16.0641C1.53986 15.2515 1.08331 14.1493 1.08331 13C1.08331 11.8507 1.53986 10.7485 2.35252 9.93587C3.16517 9.12321 4.26737 8.66667 5.41665 8.66667ZM13 1.08333C14.1493 1.08333 15.2515 1.53988 16.0641 2.35254C16.8768 3.1652 17.3333 4.2674 17.3333 5.41667C17.3333 6.56594 16.8768 7.66814 16.0641 8.4808C15.2515 9.29345 14.1493 9.75 13 9.75C11.8507 9.75 10.7485 9.29345 9.93585 8.4808C9.12319 7.66814 8.66665 6.56594 8.66665 5.41667C8.66665 4.2674 9.12319 3.1652 9.93585 2.35254C10.7485 1.53988 11.8507 1.08333 13 1.08333ZM13 16.25C14.1493 16.25 15.2515 16.7065 16.0641 17.5192C16.8768 18.3319 17.3333 19.4341 17.3333 20.5833C17.3333 21.7326 16.8768 22.8348 16.0641 23.6475C15.2515 24.4601 14.1493 24.9167 13 24.9167C11.8507 24.9167 10.7485 24.4601 9.93585 23.6475C9.12319 22.8348 8.66665 21.7326 8.66665 20.5833C8.66665 19.4341 9.12319 18.3319 9.93585 17.5192C10.7485 16.7065 11.8507 16.25 13 16.25ZM20.5833 8.66667C21.7326 8.66667 22.8348 9.12321 23.6474 9.93587C24.4601 10.7485 24.9166 11.8507 24.9166 13C24.9166 14.1493 24.4601 15.2515 23.6474 16.0641C22.8348 16.8768 21.7326 17.3333 20.5833 17.3333C19.434 17.3333 18.3318 16.8768 17.5192 16.0641C16.7065 15.2515 16.25 14.1493 16.25 13C16.25 11.8507 16.7065 10.7485 17.5192 9.93587C18.3318 9.12321 19.434 8.66667 20.5833 8.66667ZM5.41665 10.8333C4.84201 10.8333 4.29091 11.0616 3.88458 11.4679C3.47825 11.8743 3.24998 12.4254 3.24998 13C3.24998 13.5746 3.47825 14.1257 3.88458 14.5321C4.29091 14.9384 4.84201 15.1667 5.41665 15.1667C5.99128 15.1667 6.54238 14.9384 6.94871 14.5321C7.35504 14.1257 7.58331 13.5746 7.58331 13C7.58331 12.4254 7.35504 11.8743 6.94871 11.4679C6.54238 11.0616 5.99128 10.8333 5.41665 10.8333ZM20.5833 10.8333C20.0087 10.8333 19.4576 11.0616 19.0512 11.4679C18.6449 11.8743 18.4166 12.4254 18.4166 13C18.4166 13.5746 18.6449 14.1257 19.0512 14.5321C19.4576 14.9384 20.0087 15.1667 20.5833 15.1667C21.1579 15.1667 21.709 14.9384 22.1154 14.5321C22.5217 14.1257 22.75 13.5746 22.75 13C22.75 12.4254 22.5217 11.8743 22.1154 11.4679C21.709 11.0616 21.1579 10.8333 20.5833 10.8333ZM13 18.4167C12.4253 18.4167 11.8742 18.6449 11.4679 19.0513C11.0616 19.4576 10.8333 20.0087 10.8333 20.5833C10.8333 21.158 11.0616 21.7091 11.4679 22.1154C11.8742 22.5217 12.4253 22.75 13 22.75C13.5746 22.75 14.1257 22.5217 14.532 22.1154C14.9384 21.7091 15.1666 21.158 15.1666 20.5833C15.1666 20.0087 14.9384 19.4576 14.532 19.0513C14.1257 18.6449 13.5746 18.4167 13 18.4167Z" fill="#834DEE"/>
</svg>
